<svg width="50" height="51" viewBox="0 0 50 51" fill="none" xmlns="http://www.w3.org/2000/svg">
<path d="M50 36.0026C50 45.238 44.575 50.7437 35.475 50.7437H32.5C31.125 50.7437 30 49.602 30 48.2065V33.5669C30 32.8819 30.55 32.2984 31.225 32.2984L35.625 32.2222C35.975 32.1969 36.275 31.9431 36.35 31.5879L37.225 26.7419C37.3 26.2852 36.95 25.8539 36.475 25.8539L31.15 25.93C30.45 25.93 29.9 25.3718 29.875 24.6868L29.775 18.4707C29.775 18.0648 30.1 17.7096 30.525 17.7096L36.525 17.6081C36.95 17.6081 37.275 17.2782 37.275 16.8469L37.175 10.7576C37.175 10.3263 36.85 9.99651 36.425 9.99651L29.675 10.098C25.525 10.1741 22.225 13.6247 22.3 17.8364L22.425 24.8137C22.45 25.5241 21.9 26.0823 21.2 26.1076L18.2 26.1584C17.775 26.1584 17.45 26.4882 17.45 26.9195L17.525 31.7402C17.525 32.1715 17.85 32.5013 18.275 32.5013L21.275 32.4506C21.975 32.4506 22.525 33.0088 22.55 33.6938L22.775 48.1558C22.8 49.5766 21.675 50.7437 20.275 50.7437H14.525C5.425 50.7437 0 45.238 0 35.9773V14.741C0 5.50569 5.425 0 14.525 0H35.475C44.575 0 50 5.50569 50 14.741V36.0026Z" fill="#C23131"/>
</svg>
