<svg width="50" height="51" viewBox="0 0 50 51" fill="none" xmlns="http://www.w3.org/2000/svg">
<path d="M35.475 0H14.525C5.425 0 0 5.50569 0 14.741V35.9773C0 45.238 5.425 50.7437 14.525 50.7437H35.45C44.55 50.7437 49.975 45.238 49.975 36.0027V14.741C50 5.50569 44.575 0 35.475 0ZM25 35.2161C19.65 35.2161 15.3 30.8014 15.3 25.3718C15.3 19.9423 19.65 15.5276 25 15.5276C30.35 15.5276 34.7 19.9423 34.7 25.3718C34.7 30.8014 30.35 35.2161 25 35.2161ZM39.8 12.3815C39.675 12.6859 39.5 12.965 39.275 13.2187C39.025 13.4471 38.75 13.6247 38.45 13.7515C38.15 13.8784 37.825 13.9545 37.5 13.9545C36.825 13.9545 36.2 13.7008 35.725 13.2187C35.5 12.965 35.325 12.6859 35.2 12.3815C35.075 12.077 35 11.7472 35 11.4173C35 11.0875 35.075 10.7577 35.2 10.4532C35.325 10.1234 35.5 9.86965 35.725 9.61593C36.3 9.03238 37.175 8.75329 37.975 8.93089C38.15 8.95626 38.3 9.007 38.45 9.08312C38.6 9.13386 38.75 9.20998 38.9 9.31147C39.025 9.38758 39.15 9.51444 39.275 9.61593C39.5 9.86965 39.675 10.1234 39.8 10.4532C39.925 10.7577 40 11.0875 40 11.4173C40 11.7472 39.925 12.077 39.8 12.3815Z" fill="#C23131"/>
</svg>
