<svg width="26" height="26" viewBox="0 0 26 26" fill="none" xmlns="http://www.w3.org/2000/svg">
<path d="M12.4576 24.2561C6.14197 24.2561 1 19.0377 1 12.6281C1 6.21845 6.14197 1 12.4576 1C18.7733 1 23.9153 6.21845 23.9153 12.6281C23.9153 19.0377 18.7733 24.2561 12.4576 24.2561ZM12.4576 2.70167C7.05858 2.70167 2.67673 7.16004 2.67673 12.6281C2.67673 18.0961 7.05858 22.5545 12.4576 22.5545C17.8567 22.5545 22.2386 18.0961 22.2386 12.6281C22.2386 7.16004 17.8567 2.70167 12.4576 2.70167Z" fill="white" stroke="white"/>
<path d="M24.1952 25.3903C23.9828 25.3903 23.7705 25.3109 23.6028 25.1408L21.3671 22.8719C21.043 22.5429 21.043 21.9984 21.3671 21.6694C21.6913 21.3404 22.2279 21.3404 22.552 21.6694L24.7877 23.9383C25.1118 24.2672 25.1118 24.8118 24.7877 25.1408C24.62 25.3109 24.4076 25.3903 24.1952 25.3903Z" fill="white" stroke="white"/>
</svg>
