<svg width="14" height="14" viewBox="0 0 14 14" fill="none" xmlns="http://www.w3.org/2000/svg">
<path d="M9.99208 13.1939C9.66937 13.1939 9.25532 13.0888 8.73775 12.7798L6.91715 11.6861C6.72839 11.5748 6.36305 11.5748 6.18038 11.6861L4.35369 12.7798C3.27594 13.4287 2.64269 13.1692 2.35651 12.9591C2.07642 12.749 1.63801 12.2113 1.92419 10.9754L2.35651 9.0783C2.40522 8.88055 2.3078 8.54068 2.16166 8.39237L0.651593 6.85984C-0.103441 6.09357 -0.0425512 5.43854 0.0609616 5.11719C0.164474 4.79585 0.493279 4.22733 1.54058 4.04812L3.48297 3.72061C3.66564 3.68971 3.92747 3.49196 4.00662 3.32512L5.08437 1.14374C5.57148 0.148828 6.21082 0.000518799 6.54572 0.000518799C6.88061 0.000518799 7.51995 0.148828 8.00707 1.14374L9.07874 3.31894C9.16398 3.48579 9.42581 3.68353 9.60848 3.71443L11.5509 4.04194C12.6043 4.22115 12.9331 4.78967 13.0305 5.11101C13.1279 5.43236 13.1888 6.08739 12.4399 6.85366L10.9298 8.39237C10.7837 8.54068 10.6923 8.87437 10.7349 9.0783L11.1673 10.9754C11.4473 12.2113 11.015 12.749 10.7349 12.9591C10.5827 13.0703 10.3392 13.1939 9.99208 13.1939Z" fill="#C23131"/>
</svg>
