<svg width="14" height="14" viewBox="0 0 14 14" fill="none" xmlns="http://www.w3.org/2000/svg">
<path d="M9.99208 13.1934C9.66937 13.1934 9.25531 13.0883 8.73775 12.7793L6.91715 11.6855C6.72839 11.5743 6.36305 11.5743 6.18038 11.6855L4.35369 12.7793C3.27594 13.4282 2.64269 13.1686 2.35651 12.9585C2.07642 12.7484 1.63801 12.2108 1.92419 10.9749L2.35651 9.07778C2.40522 8.88003 2.3078 8.54016 2.16166 8.39185L0.651593 6.85932C-0.103441 6.09306 -0.0425512 5.43802 0.0609616 5.11667C0.164474 4.79533 0.493279 4.22681 1.54058 4.04761L3.48297 3.72009C3.66564 3.68919 3.92747 3.49145 4.00662 3.3246L5.08437 1.14322C5.57148 0.148309 6.21082 0 6.54572 0C6.88061 0 7.51995 0.148309 8.00707 1.14322L9.07874 3.31842C9.16398 3.48527 9.42581 3.68301 9.60848 3.71391L11.5509 4.04143C12.6043 4.22063 12.9331 4.78915 13.0305 5.11049C13.1279 5.43184 13.1888 6.08688 12.4399 6.85314L10.9298 8.39185C10.7837 8.54016 10.6923 8.87385 10.7349 9.07778L11.1673 10.9749C11.4473 12.2108 11.015 12.7484 10.7349 12.9585C10.5827 13.0698 10.3392 13.1934 9.99208 13.1934ZM6.54572 10.6721C6.84408 10.6721 7.14244 10.7463 7.37991 10.8884L9.20051 11.9822C9.73026 12.3035 10.0652 12.3035 10.193 12.2108C10.3209 12.1181 10.4122 11.7906 10.2783 11.185L9.84595 9.28788C9.73026 8.77498 9.91901 8.11377 10.2844 7.73682L11.7944 6.20429C12.0928 5.90149 12.2267 5.60487 12.1659 5.40095C12.0989 5.197 11.8188 5.03015 11.4047 4.96218L9.46234 4.63466C8.99349 4.55433 8.48201 4.1712 8.2689 3.73863L7.19724 1.56343C7.00239 1.16794 6.75883 0.933112 6.54572 0.933112C6.3326 0.933112 6.08904 1.16794 5.90029 1.56343L4.82255 3.73863C4.60943 4.1712 4.09796 4.55433 3.62911 4.63466L1.69281 4.96218C1.27876 5.03015 0.998665 5.197 0.931686 5.40095C0.864707 5.60487 1.00475 5.90767 1.30311 6.20429L2.81318 7.73682C3.17852 8.10759 3.36728 8.77498 3.25159 9.28788L2.81927 11.185C2.67922 11.7968 2.77665 12.1181 2.90452 12.2108C3.03239 12.3035 3.36119 12.2973 3.89702 11.9822L5.71762 10.8884C5.949 10.7463 6.24736 10.6721 6.54572 10.6721Z" fill="#C23131"/>
</svg>
